<svg width="80" height="80" viewBox="0 0 80 80" fill="none" xmlns="http://www.w3.org/2000/svg">
<circle cx="40" cy="40" r="40" fill="#B8DC7F"/>
<path d="M37.5 57C37.5 58.3807 38.6193 59.5 40 59.5C41.3807 59.5 42.5 58.3807 42.5 57H37.5ZM41.7678 21.2322C40.7915 20.2559 39.2085 20.2559 38.2322 21.2322L22.3223 37.1421C21.346 38.1184 21.346 39.7014 22.3223 40.6777C23.2986 41.654 24.8816 41.654 25.8579 40.6777L40 26.5355L54.1421 40.6777C55.1184 41.654 56.7014 41.654 57.6777 40.6777C58.654 39.7014 58.654 38.1184 57.6777 37.1421L41.7678 21.2322ZM42.5 57V23H37.5V57H42.5Z" fill="white"/>
</svg>
